<svg xmlns="http://www.w3.org/2000/svg" viewBox="0 0 96 96" role="img" aria-label="朝夕拾光">
  <defs>
    <linearGradient id="sky" x1="18" y1="10" x2="80" y2="88" gradientUnits="userSpaceOnUse">
      <stop stop-color="#075CFF"/>
      <stop offset=".48" stop-color="#1686E8"/>
      <stop offset="1" stop-color="#16C58A"/>
    </linearGradient>
    <linearGradient id="dawn" x1="30" y1="20" x2="63" y2="62" gradientUnits="userSpaceOnUse">
      <stop stop-color="#FFF8C5"/>
      <stop offset=".58" stop-color="#FFD970"/>
      <stop offset="1" stop-color="#FFAA47"/>
    </linearGradient>
    <linearGradient id="wave" x1="24" y1="60" x2="69" y2="72" gradientUnits="userSpaceOnUse">
      <stop stop-color="#D7FFF1" stop-opacity=".94"/>
      <stop offset="1" stop-color="#7BEAC4" stop-opacity=".38"/>
    </linearGradient>
    <filter id="glow" x="-50%" y="-50%" width="200%" height="200%">
      <feGaussianBlur stdDeviation="3"/>
    </filter>
  </defs>
  <rect x="3" y="3" width="90" height="90" rx="29" fill="#071A50"/>
  <rect x="5" y="5" width="86" height="86" rx="27" fill="url(#sky)"/>
  <circle cx="54" cy="37" r="18" fill="#FFE077" opacity=".42" filter="url(#glow)"/>
  <circle cx="54" cy="37" r="14" fill="url(#dawn)"/>
  <path d="M17 67.5c8.8-12.5 17.3-18.8 25.5-18.8 7.1 0 13.2 3.4 18.4 10.1 3.6 4.7 9.6 8.2 18.1 10.5v9.1H17Z" fill="#063B86" fill-opacity=".72"/>
  <path d="M17 69.5c10.8-4.3 21.5-4.2 32 .4 9.2 4 19.2 4.2 30 .5v8.4H17Z" fill="url(#wave)"/>
  <path d="M24 62.5c7.1-1.9 13.2-1.5 18.4 1.3M50 66.3c8.3 2.8 15.9 2.4 23-1.1" fill="none" stroke="#E6FFF8" stroke-opacity=".66" stroke-width="2.2" stroke-linecap="round"/>
  <path d="M33 18.5c-4 2.6-7 6.4-8.4 11.1M29.7 24.2l-5.8-1.1M35.4 17.8l-2.1-5.4" fill="none" stroke="#E9FFF8" stroke-opacity=".92" stroke-width="2.5" stroke-linecap="round"/>
  <path d="M70.7 25.2c2.7 3.9 3.8 8.4 3.2 13M75 31.2l5.3 2.5" fill="none" stroke="#F4FFF9" stroke-opacity=".58" stroke-width="2.2" stroke-linecap="round"/>
  <circle cx="22" cy="40" r="1.8" fill="#FFF" fill-opacity=".84"/>
  <circle cx="74" cy="51" r="1.4" fill="#FFF" fill-opacity=".7"/>
  <rect x="5" y="5" width="86" height="86" rx="27" fill="none" stroke="#FFF" stroke-opacity=".34" stroke-width="2"/>
</svg>
